<svg width="61" height="30" viewBox="0 0 61 30" fill="none" xmlns="http://www.w3.org/2000/svg">
<path d="M0 6C0 4.34315 1.34315 3 3 3H5V25H3C1.34315 25 0 23.6569 0 22V6Z" fill="#FF6C22"/>
<path d="M16.26 9.765C16.13 9.875 15.96 9.965 15.75 10.035C15.55 10.095 15.315 10.125 15.045 10.125C14.685 10.125 14.385 10.08 14.145 9.99C13.915 9.9 13.765 9.745 13.695 9.525C13.415 8.645 13.185 7.935 13.005 7.395C12.825 6.845 12.685 6.365 12.585 5.955H12.51C12.48 6.545 12.455 7.085 12.435 7.575C12.425 8.055 12.415 8.525 12.405 8.985C12.405 9.445 12.395 9.91 12.375 10.38C12.365 10.85 12.345 11.37 12.315 11.94C12.185 11.99 12.015 12.03 11.805 12.06C11.595 12.1 11.385 12.12 11.175 12.12C10.735 12.12 10.39 12.05 10.14 11.91C9.9 11.77 9.78 11.515 9.78 11.145L10.215 3.495C10.295 3.365 10.47 3.225 10.74 3.075C11.01 2.925 11.39 2.85 11.88 2.85C12.41 2.85 12.825 2.935 13.125 3.105C13.425 3.265 13.645 3.53 13.785 3.9C13.875 4.14 13.97 4.415 14.07 4.725C14.18 5.035 14.285 5.355 14.385 5.685C14.495 6.015 14.6 6.345 14.7 6.675C14.8 6.995 14.89 7.285 14.97 7.545H15.045C15.285 6.705 15.525 5.895 15.765 5.115C16.005 4.325 16.225 3.665 16.425 3.135C16.575 3.055 16.765 2.99 16.995 2.94C17.235 2.88 17.5 2.85 17.79 2.85C18.28 2.85 18.68 2.925 18.99 3.075C19.3 3.215 19.48 3.42 19.53 3.69C19.57 3.89 19.61 4.2 19.65 4.62C19.7 5.03 19.75 5.495 19.8 6.015C19.85 6.535 19.9 7.085 19.95 7.665C20 8.245 20.045 8.805 20.085 9.345C20.135 9.875 20.175 10.365 20.205 10.815C20.235 11.255 20.255 11.595 20.265 11.835C20.095 11.935 19.915 12.005 19.725 12.045C19.545 12.095 19.31 12.12 19.02 12.12C18.64 12.12 18.32 12.055 18.06 11.925C17.8 11.795 17.66 11.54 17.64 11.16C17.58 10.07 17.54 9.09 17.52 8.22C17.51 7.35 17.49 6.62 17.46 6.03H17.385C17.285 6.42 17.14 6.91 16.95 7.5C16.76 8.09 16.53 8.845 16.26 9.765Z" fill="#2B3499"/>
<path d="M29.325 9.355C29.325 9.975 29.23 10.53 29.04 11.02C28.85 11.5 28.58 11.905 28.23 12.235C27.89 12.565 27.48 12.815 27 12.985C26.52 13.155 25.985 13.24 25.395 13.24C24.805 13.24 24.27 13.15 23.79 12.97C23.31 12.79 22.895 12.535 22.545 12.205C22.205 11.865 21.94 11.455 21.75 10.975C21.56 10.495 21.465 9.955 21.465 9.355C21.465 8.765 21.56 8.23 21.75 7.75C21.94 7.27 22.205 6.865 22.545 6.535C22.895 6.195 23.31 5.935 23.79 5.755C24.27 5.575 24.805 5.485 25.395 5.485C25.985 5.485 26.52 5.58 27 5.77C27.48 5.95 27.89 6.21 28.23 6.55C28.58 6.88 28.85 7.285 29.04 7.765C29.23 8.245 29.325 8.775 29.325 9.355ZM24.075 9.355C24.075 9.965 24.19 10.435 24.42 10.765C24.66 11.085 24.99 11.245 25.41 11.245C25.83 11.245 26.15 11.08 26.37 10.75C26.6 10.42 26.715 9.955 26.715 9.355C26.715 8.755 26.6 8.295 26.37 7.975C26.14 7.645 25.815 7.48 25.395 7.48C24.975 7.48 24.65 7.645 24.42 7.975C24.19 8.295 24.075 8.755 24.075 9.355Z" fill="#2B3499"/>
<path d="M34.655 11.805C34.515 11.915 34.31 12.005 34.04 12.075C33.77 12.145 33.465 12.18 33.125 12.18C32.735 12.18 32.395 12.13 32.105 12.03C31.825 11.93 31.63 11.77 31.52 11.55C31.43 11.38 31.32 11.145 31.19 10.845C31.07 10.535 30.94 10.195 30.8 9.825C30.66 9.445 30.515 9.04 30.365 8.61C30.215 8.18 30.07 7.755 29.93 7.335C29.8 6.915 29.68 6.51 29.57 6.12C29.46 5.73 29.37 5.385 29.3 5.085C29.44 4.945 29.625 4.825 29.855 4.725C30.095 4.615 30.355 4.56 30.635 4.56C30.985 4.56 31.27 4.635 31.49 4.785C31.72 4.925 31.89 5.195 32 5.595L32.585 7.89C32.695 8.34 32.8 8.75 32.9 9.12C33 9.48 33.075 9.76 33.125 9.96H33.2C33.39 9.22 33.59 8.4 33.8 7.5C34.01 6.6 34.2 5.715 34.37 4.845C34.54 4.755 34.73 4.685 34.94 4.635C35.16 4.585 35.37 4.56 35.57 4.56C35.92 4.56 36.215 4.635 36.455 4.785C36.695 4.935 36.815 5.195 36.815 5.565C36.815 5.725 36.775 5.96 36.695 6.27C36.625 6.57 36.53 6.915 36.41 7.305C36.3 7.685 36.165 8.09 36.005 8.52C35.855 8.95 35.7 9.37 35.54 9.78C35.38 10.19 35.22 10.575 35.06 10.935C34.91 11.285 34.775 11.575 34.655 11.805Z" fill="#2B3499"/>
<path d="M46.635 12.24C46.045 12.24 45.495 12.16 44.985 12C44.485 11.83 44.045 11.58 43.665 11.25C43.295 10.92 43 10.505 42.78 10.005C42.57 9.505 42.465 8.92 42.465 8.25C42.465 7.59 42.57 7.025 42.78 6.555C43 6.075 43.285 5.685 43.635 5.385C43.985 5.075 44.385 4.85 44.835 4.71C45.285 4.56 45.745 4.485 46.215 4.485C46.745 4.485 47.225 4.565 47.655 4.725C48.095 4.885 48.47 5.105 48.78 5.385C49.1 5.665 49.345 6 49.515 6.39C49.695 6.78 49.785 7.205 49.785 7.665C49.785 8.005 49.69 8.265 49.5 8.445C49.31 8.625 49.045 8.74 48.705 8.79L45 9.345C45.11 9.675 45.335 9.925 45.675 10.095C46.015 10.255 46.405 10.335 46.845 10.335C47.255 10.335 47.64 10.285 48 10.185C48.37 10.075 48.67 9.95 48.9 9.81C49.06 9.91 49.195 10.05 49.305 10.23C49.415 10.41 49.47 10.6 49.47 10.8C49.47 11.25 49.26 11.585 48.84 11.805C48.52 11.975 48.16 12.09 47.76 12.15C47.36 12.21 46.985 12.24 46.635 12.24ZM46.215 6.345C45.975 6.345 45.765 6.385 45.585 6.465C45.415 6.545 45.275 6.65 45.165 6.78C45.055 6.9 44.97 7.04 44.91 7.2C44.86 7.35 44.83 7.505 44.82 7.665L47.385 7.245C47.355 7.045 47.245 6.845 47.055 6.645C46.865 6.445 46.585 6.345 46.215 6.345Z" fill="#2B3499"/>
<path d="M19.72 15.685C19.72 15.305 19.845 14.985 20.095 14.725C20.355 14.465 20.695 14.335 21.115 14.335C21.535 14.335 21.87 14.465 22.12 14.725C22.38 14.985 22.51 15.305 22.51 15.685C22.51 16.065 22.38 16.385 22.12 16.645C21.87 16.905 21.535 17.035 21.115 17.035C20.695 17.035 20.355 16.905 20.095 16.645C19.845 16.385 19.72 16.065 19.72 15.685ZM22.39 24.985C22.28 25.005 22.115 25.03 21.895 25.06C21.685 25.1 21.47 25.12 21.25 25.12C21.03 25.12 20.83 25.105 20.65 25.075C20.48 25.045 20.335 24.985 20.215 24.895C20.095 24.805 20 24.685 19.93 24.535C19.87 24.375 19.84 24.17 19.84 23.92V17.815C19.95 17.795 20.11 17.77 20.32 17.74C20.54 17.7 20.76 17.68 20.98 17.68C21.2 17.68 21.395 17.695 21.565 17.725C21.745 17.755 21.895 17.815 22.015 17.905C22.135 17.995 22.225 18.12 22.285 18.28C22.355 18.43 22.39 18.63 22.39 18.88V24.985Z" fill="#2B3499"/>
<path d="M26.9 20.38C27.07 20.38 27.255 20.365 27.455 20.335C27.665 20.295 27.82 20.245 27.92 20.185V18.985L26.84 19.075C26.56 19.095 26.33 19.155 26.15 19.255C25.97 19.355 25.88 19.505 25.88 19.705C25.88 19.905 25.955 20.07 26.105 20.2C26.265 20.32 26.53 20.38 26.9 20.38ZM26.78 14.485C27.32 14.485 27.81 14.54 28.25 14.65C28.7 14.76 29.08 14.93 29.39 15.16C29.71 15.38 29.955 15.665 30.125 16.015C30.295 16.355 30.38 16.76 30.38 17.23V20.59C30.38 20.85 30.305 21.065 30.155 21.235C30.015 21.395 29.845 21.535 29.645 21.655C28.995 22.045 28.08 22.24 26.9 22.24C26.37 22.24 25.89 22.19 25.46 22.09C25.04 21.99 24.675 21.84 24.365 21.64C24.065 21.44 23.83 21.185 23.66 20.875C23.5 20.565 23.42 20.205 23.42 19.795C23.42 19.105 23.625 18.575 24.035 18.205C24.445 17.835 25.08 17.605 25.94 17.515L27.905 17.305V17.2C27.905 16.91 27.775 16.705 27.515 16.585C27.265 16.455 26.9 16.39 26.42 16.39C26.04 16.39 25.67 16.43 25.31 16.51C24.95 16.59 24.625 16.69 24.335 16.81C24.205 16.72 24.095 16.585 24.005 16.405C23.915 16.215 23.87 16.02 23.87 15.82C23.87 15.56 23.93 15.355 24.05 15.205C24.18 15.045 24.375 14.91 24.635 14.8C24.925 14.69 25.265 14.61 25.655 14.56C26.055 14.51 26.43 14.485 26.78 14.485Z" fill="#2B3499"/>
<path d="M35.33 22.985C35.23 23.015 35.07 23.045 34.85 23.075C34.64 23.105 34.42 23.12 34.19 23.12C33.97 23.12 33.77 23.105 33.59 23.075C33.42 23.045 33.275 22.985 33.155 22.895C33.035 22.805 32.94 22.685 32.87 22.535C32.81 22.375 32.78 22.17 32.78 21.92V17.42C32.78 17.19 32.82 16.995 32.9 16.835C32.99 16.665 33.115 16.515 33.275 16.385C33.435 16.255 33.63 16.14 33.86 16.04C34.1 15.93 34.355 15.835 34.625 15.755C34.895 15.675 35.175 15.615 35.465 15.575C35.755 15.525 36.045 15.5 36.335 15.5C36.815 15.5 37.195 15.595 37.475 15.785C37.755 15.965 37.895 16.265 37.895 16.685C37.895 16.825 37.875 16.965 37.835 17.105C37.795 17.235 37.745 17.355 37.685 17.465C37.475 17.465 37.26 17.475 37.04 17.495C36.82 17.515 36.605 17.545 36.395 17.585C36.185 17.625 35.985 17.67 35.795 17.72C35.615 17.76 35.46 17.81 35.33 17.87V22.985Z" fill="#2B3499"/>
<path d="M39.92 20.14C39.81 19.89 39.69 19.61 39.56 19.3C39.44 18.99 39.31 18.635 39.17 18.235C39.04 17.835 38.9 17.38 38.75 16.87C38.61 16.35 38.46 15.755 38.3 15.085C38.44 14.945 38.625 14.825 38.855 14.725C39.095 14.615 39.355 14.56 39.635 14.56C39.985 14.56 40.275 14.635 40.505 14.785C40.735 14.925 40.905 15.195 41.015 15.595L42.2 19.72H42.26C42.38 19.38 42.495 19.01 42.605 18.61C42.725 18.21 42.84 17.8 42.95 17.38C43.06 16.95 43.16 16.525 43.25 16.105C43.35 15.675 43.435 15.255 43.505 14.845C43.865 14.655 44.26 14.56 44.69 14.56C45.04 14.56 45.33 14.635 45.56 14.785C45.79 14.935 45.905 15.195 45.905 15.565C45.905 15.835 45.87 16.15 45.8 16.51C45.73 16.86 45.635 17.235 45.515 17.635C45.405 18.035 45.27 18.45 45.11 18.88C44.96 19.3 44.8 19.715 44.63 20.125C44.46 20.535 44.285 20.925 44.105 21.295C43.925 21.655 43.75 21.98 43.58 22.27C43.3 22.76 43.04 23.16 42.8 23.47C42.56 23.78 42.33 24.02 42.11 24.19C41.89 24.37 41.67 24.49 41.45 24.55C41.23 24.62 41 24.655 40.76 24.655C40.34 24.655 40 24.53 39.74 24.28C39.48 24.03 39.325 23.705 39.275 23.305C39.595 23.055 39.915 22.775 40.235 22.465C40.555 22.165 40.845 21.855 41.105 21.535C40.935 21.485 40.75 21.37 40.55 21.19C40.36 21 40.15 20.65 39.92 20.14Z" fill="#2B3499"/>
<path d="M12.585 21.05C12.695 21.07 12.83 21.09 12.99 21.11C13.15 21.12 13.3 21.125 13.44 21.125C13.78 21.125 14.09 21.075 14.37 20.975C14.66 20.875 14.905 20.72 15.105 20.51C15.315 20.3 15.475 20.03 15.585 19.7C15.705 19.36 15.765 18.955 15.765 18.485C15.765 17.585 15.555 16.91 15.135 16.46C14.715 16 14.155 15.77 13.455 15.77C13.315 15.77 13.17 15.775 13.02 15.785C12.88 15.795 12.735 15.81 12.585 15.83V21.05ZM13.425 23.24C13.255 23.24 13.06 23.235 12.84 23.225C12.62 23.215 12.39 23.195 12.15 23.165C11.92 23.135 11.685 23.095 11.445 23.045C11.215 23.005 11 22.945 10.8 22.865C10.25 22.655 9.975 22.29 9.975 21.77V14.765C9.975 14.555 10.03 14.395 10.14 14.285C10.26 14.165 10.42 14.07 10.62 14C11.05 13.86 11.505 13.77 11.985 13.73C12.465 13.68 12.895 13.655 13.275 13.655C14.055 13.655 14.76 13.75 15.39 13.94C16.03 14.13 16.575 14.425 17.025 14.825C17.485 15.215 17.84 15.71 18.09 16.31C18.34 16.91 18.465 17.62 18.465 18.44C18.465 19.24 18.345 19.94 18.105 20.54C17.865 21.13 17.52 21.63 17.07 22.04C16.63 22.44 16.1 22.74 15.48 22.94C14.86 23.14 14.175 23.24 13.425 23.24Z" fill="#2B3499"/>
<path d="M37.72 3.685C37.72 3.305 37.845 2.985 38.095 2.725C38.355 2.465 38.695 2.335 39.115 2.335C39.535 2.335 39.87 2.465 40.12 2.725C40.38 2.985 40.51 3.305 40.51 3.685C40.51 4.065 40.38 4.385 40.12 4.645C39.87 4.905 39.535 5.035 39.115 5.035C38.695 5.035 38.355 4.905 38.095 4.645C37.845 4.385 37.72 4.065 37.72 3.685ZM40.39 12.985C40.28 13.005 40.115 13.03 39.895 13.06C39.685 13.1 39.47 13.12 39.25 13.12C39.03 13.12 38.83 13.105 38.65 13.075C38.48 13.045 38.335 12.985 38.215 12.895C38.095 12.805 38 12.685 37.93 12.535C37.87 12.375 37.84 12.17 37.84 11.92V5.815C37.95 5.795 38.11 5.77 38.32 5.74C38.54 5.7 38.76 5.68 38.98 5.68C39.2 5.68 39.395 5.695 39.565 5.725C39.745 5.755 39.895 5.815 40.015 5.905C40.135 5.995 40.225 6.12 40.285 6.28C40.355 6.43 40.39 6.63 40.39 6.88V12.985Z" fill="#2B3499"/>
<path d="M53 11.7027C53 11.3272 53.2104 10.9833 53.5447 10.8124L59.5447 7.74418C60.2101 7.40393 61 7.88718 61 8.63453V20.3655C61 21.1128 60.2101 21.5961 59.5447 21.2558L53.5447 18.1876C53.2104 18.0167 53 17.6728 53 17.2973V11.7027Z" fill="#2B3499"/>
</svg>
